G04 #@! TF.GenerationSoftware,KiCad,Pcbnew,5.1.3-ffb9f22~84~ubuntu18.04.1*
G04 #@! TF.CreationDate,2019-08-13T01:25:41-07:00*
G04 #@! TF.ProjectId,ATmega32U4breakout,41546d65-6761-4333-9255-34627265616b,rev?*
G04 #@! TF.SameCoordinates,Original*
G04 #@! TF.FileFunction,Legend,Bot*
G04 #@! TF.FilePolarity,Positive*
%FSLAX46Y46*%
G04 Gerber Fmt 4.6, Leading zero omitted, Abs format (unit mm)*
G04 Created by KiCad (PCBNEW 5.1.3-ffb9f22~84~ubuntu18.04.1) date 2019-08-13 01:25:41*
%MOMM*%
%LPD*%
G04 APERTURE LIST*
%ADD10C,0.150000*%
G04 APERTURE END LIST*
D10*
X135072380Y-79931619D02*
X134072380Y-79931619D01*
X134072380Y-80169714D01*
X134120000Y-80312571D01*
X134215238Y-80407809D01*
X134310476Y-80455428D01*
X134500952Y-80503047D01*
X134643809Y-80503047D01*
X134834285Y-80455428D01*
X134929523Y-80407809D01*
X135024761Y-80312571D01*
X135072380Y-80169714D01*
X135072380Y-79931619D01*
X135072380Y-81360190D02*
X134548571Y-81360190D01*
X134453333Y-81312571D01*
X134405714Y-81217333D01*
X134405714Y-81026857D01*
X134453333Y-80931619D01*
X135024761Y-81360190D02*
X135072380Y-81264952D01*
X135072380Y-81026857D01*
X135024761Y-80931619D01*
X134929523Y-80884000D01*
X134834285Y-80884000D01*
X134739047Y-80931619D01*
X134691428Y-81026857D01*
X134691428Y-81264952D01*
X134643809Y-81360190D01*
X135072380Y-81836380D02*
X134405714Y-81836380D01*
X134596190Y-81836380D02*
X134500952Y-81884000D01*
X134453333Y-81931619D01*
X134405714Y-82026857D01*
X134405714Y-82122095D01*
X134405714Y-82360190D02*
X135072380Y-82550666D01*
X134596190Y-82741142D01*
X135072380Y-82931619D01*
X134405714Y-83122095D01*
X135072380Y-83503047D02*
X134405714Y-83503047D01*
X134072380Y-83503047D02*
X134120000Y-83455428D01*
X134167619Y-83503047D01*
X134120000Y-83550666D01*
X134072380Y-83503047D01*
X134167619Y-83503047D01*
X134405714Y-83979238D02*
X135072380Y-83979238D01*
X134500952Y-83979238D02*
X134453333Y-84026857D01*
X134405714Y-84122095D01*
X134405714Y-84264952D01*
X134453333Y-84360190D01*
X134548571Y-84407809D01*
X135072380Y-84407809D01*
X134977142Y-86217333D02*
X135024761Y-86169714D01*
X135072380Y-86026857D01*
X135072380Y-85931619D01*
X135024761Y-85788761D01*
X134929523Y-85693523D01*
X134834285Y-85645904D01*
X134643809Y-85598285D01*
X134500952Y-85598285D01*
X134310476Y-85645904D01*
X134215238Y-85693523D01*
X134120000Y-85788761D01*
X134072380Y-85931619D01*
X134072380Y-86026857D01*
X134120000Y-86169714D01*
X134167619Y-86217333D01*
X135072380Y-86788761D02*
X135024761Y-86693523D01*
X134929523Y-86645904D01*
X134072380Y-86645904D01*
X135072380Y-87598285D02*
X134548571Y-87598285D01*
X134453333Y-87550666D01*
X134405714Y-87455428D01*
X134405714Y-87264952D01*
X134453333Y-87169714D01*
X135024761Y-87598285D02*
X135072380Y-87503047D01*
X135072380Y-87264952D01*
X135024761Y-87169714D01*
X134929523Y-87122095D01*
X134834285Y-87122095D01*
X134739047Y-87169714D01*
X134691428Y-87264952D01*
X134691428Y-87503047D01*
X134643809Y-87598285D01*
X135072380Y-88074476D02*
X134405714Y-88074476D01*
X134596190Y-88074476D02*
X134500952Y-88122095D01*
X134453333Y-88169714D01*
X134405714Y-88264952D01*
X134405714Y-88360190D01*
X135072380Y-88693523D02*
X134072380Y-88693523D01*
X134691428Y-88788761D02*
X135072380Y-89074476D01*
X134405714Y-89074476D02*
X134786666Y-88693523D01*
X134167619Y-90217333D02*
X134120000Y-90264952D01*
X134072380Y-90360190D01*
X134072380Y-90598285D01*
X134120000Y-90693523D01*
X134167619Y-90741142D01*
X134262857Y-90788761D01*
X134358095Y-90788761D01*
X134500952Y-90741142D01*
X135072380Y-90169714D01*
X135072380Y-90788761D01*
X134072380Y-91407809D02*
X134072380Y-91503047D01*
X134120000Y-91598285D01*
X134167619Y-91645904D01*
X134262857Y-91693523D01*
X134453333Y-91741142D01*
X134691428Y-91741142D01*
X134881904Y-91693523D01*
X134977142Y-91645904D01*
X135024761Y-91598285D01*
X135072380Y-91503047D01*
X135072380Y-91407809D01*
X135024761Y-91312571D01*
X134977142Y-91264952D01*
X134881904Y-91217333D01*
X134691428Y-91169714D01*
X134453333Y-91169714D01*
X134262857Y-91217333D01*
X134167619Y-91264952D01*
X134120000Y-91312571D01*
X134072380Y-91407809D01*
X135072380Y-92693523D02*
X135072380Y-92122095D01*
X135072380Y-92407809D02*
X134072380Y-92407809D01*
X134215238Y-92312571D01*
X134310476Y-92217333D01*
X134358095Y-92122095D01*
X135072380Y-93169714D02*
X135072380Y-93360190D01*
X135024761Y-93455428D01*
X134977142Y-93503047D01*
X134834285Y-93598285D01*
X134643809Y-93645904D01*
X134262857Y-93645904D01*
X134167619Y-93598285D01*
X134120000Y-93550666D01*
X134072380Y-93455428D01*
X134072380Y-93264952D01*
X134120000Y-93169714D01*
X134167619Y-93122095D01*
X134262857Y-93074476D01*
X134500952Y-93074476D01*
X134596190Y-93122095D01*
X134643809Y-93169714D01*
X134691428Y-93264952D01*
X134691428Y-93455428D01*
X134643809Y-93550666D01*
X134596190Y-93598285D01*
X134500952Y-93645904D01*
X134977142Y-94836380D02*
X135024761Y-94884000D01*
X135072380Y-94836380D01*
X135024761Y-94788761D01*
X134977142Y-94836380D01*
X135072380Y-94836380D01*
X134453333Y-94836380D02*
X134500952Y-94884000D01*
X134548571Y-94836380D01*
X134500952Y-94788761D01*
X134453333Y-94836380D01*
X134548571Y-94836380D01*
X135072380Y-95312571D02*
X134072380Y-95312571D01*
X134072380Y-95550666D01*
X134120000Y-95693523D01*
X134215238Y-95788761D01*
X134310476Y-95836380D01*
X134500952Y-95884000D01*
X134643809Y-95884000D01*
X134834285Y-95836380D01*
X134929523Y-95788761D01*
X135024761Y-95693523D01*
X135072380Y-95550666D01*
X135072380Y-95312571D01*
M02*
