G04 #@! TF.GenerationSoftware,KiCad,Pcbnew,5.1.3-ffb9f22~84~ubuntu18.04.1*
G04 #@! TF.CreationDate,2019-08-13T01:25:41-07:00*
G04 #@! TF.ProjectId,ATmega32U4breakout,41546d65-6761-4333-9255-34627265616b,rev?*
G04 #@! TF.SameCoordinates,Original*
G04 #@! TF.FileFunction,Legend,Top*
G04 #@! TF.FilePolarity,Positive*
%FSLAX46Y46*%
G04 Gerber Fmt 4.6, Leading zero omitted, Abs format (unit mm)*
G04 Created by KiCad (PCBNEW 5.1.3-ffb9f22~84~ubuntu18.04.1) date 2019-08-13 01:25:41*
%MOMM*%
%LPD*%
G04 APERTURE LIST*
%ADD10C,0.150000*%
%ADD11C,0.120000*%
G04 APERTURE END LIST*
D10*
X136580571Y-112587842D02*
X136580571Y-112254508D01*
X137104380Y-112177127D02*
X137104380Y-112653318D01*
X136104380Y-112528318D01*
X136104380Y-112052127D01*
X137104380Y-111319985D02*
X136580571Y-111254508D01*
X136485333Y-111290223D01*
X136437714Y-111379508D01*
X136437714Y-111569985D01*
X136485333Y-111671175D01*
X137056761Y-111314032D02*
X137104380Y-111415223D01*
X137104380Y-111653318D01*
X137056761Y-111742604D01*
X136961523Y-111778318D01*
X136866285Y-111766413D01*
X136771047Y-111706889D01*
X136723428Y-111605699D01*
X136723428Y-111367604D01*
X136675809Y-111266413D01*
X137056761Y-110885461D02*
X137104380Y-110796175D01*
X137104380Y-110605699D01*
X137056761Y-110504508D01*
X136961523Y-110444985D01*
X136913904Y-110439032D01*
X136818666Y-110474747D01*
X136771047Y-110564032D01*
X136771047Y-110706889D01*
X136723428Y-110796175D01*
X136628190Y-110831889D01*
X136580571Y-110825937D01*
X136485333Y-110766413D01*
X136437714Y-110665223D01*
X136437714Y-110522366D01*
X136485333Y-110433080D01*
X136437714Y-110093794D02*
X136437714Y-109712842D01*
X136104380Y-109909270D02*
X136961523Y-110016413D01*
X137056761Y-109980699D01*
X137104380Y-109891413D01*
X137104380Y-109796175D01*
X137104380Y-108700937D02*
X136104380Y-108575937D01*
X136104380Y-108194985D01*
X136152000Y-108105699D01*
X136199619Y-108064032D01*
X136294857Y-108028318D01*
X136437714Y-108046175D01*
X136532952Y-108105699D01*
X136580571Y-108159270D01*
X136628190Y-108260461D01*
X136628190Y-108641413D01*
X137104380Y-107700937D02*
X136437714Y-107617604D01*
X136104380Y-107575937D02*
X136152000Y-107629508D01*
X136199619Y-107587842D01*
X136152000Y-107534270D01*
X136104380Y-107575937D01*
X136199619Y-107587842D01*
X136437714Y-107141413D02*
X137104380Y-107224747D01*
X136532952Y-107153318D02*
X136485333Y-107099747D01*
X136437714Y-106998556D01*
X136437714Y-106855699D01*
X136485333Y-106766413D01*
X136580571Y-106730699D01*
X137104380Y-106796175D01*
X137056761Y-106361651D02*
X137104380Y-106272366D01*
X137104380Y-106081889D01*
X137056761Y-105980699D01*
X136961523Y-105921175D01*
X136913904Y-105915223D01*
X136818666Y-105950937D01*
X136771047Y-106040223D01*
X136771047Y-106183080D01*
X136723428Y-106272366D01*
X136628190Y-106308080D01*
X136580571Y-106302127D01*
X136485333Y-106242604D01*
X136437714Y-106141413D01*
X136437714Y-105998556D01*
X136485333Y-105909270D01*
X132183238Y-105221205D02*
X132135619Y-105358110D01*
X132135619Y-105596205D01*
X132183238Y-105697395D01*
X132230857Y-105750967D01*
X132326095Y-105810491D01*
X132421333Y-105822395D01*
X132516571Y-105786681D01*
X132564190Y-105745014D01*
X132611809Y-105655729D01*
X132659428Y-105471205D01*
X132707047Y-105381919D01*
X132754666Y-105340252D01*
X132849904Y-105304538D01*
X132945142Y-105316443D01*
X133040380Y-105375967D01*
X133088000Y-105429538D01*
X133135619Y-105530729D01*
X133135619Y-105768824D01*
X133088000Y-105905729D01*
X132135619Y-106358110D02*
X132183238Y-106268824D01*
X132230857Y-106227157D01*
X132326095Y-106191443D01*
X132611809Y-106227157D01*
X132707047Y-106286681D01*
X132754666Y-106340252D01*
X132802285Y-106441443D01*
X132802285Y-106584300D01*
X132754666Y-106673586D01*
X132707047Y-106715252D01*
X132611809Y-106750967D01*
X132326095Y-106715252D01*
X132230857Y-106655729D01*
X132183238Y-106602157D01*
X132135619Y-106500967D01*
X132135619Y-106358110D01*
X132802285Y-107631919D02*
X132135619Y-107548586D01*
X132802285Y-107203348D02*
X132278476Y-107137872D01*
X132183238Y-107173586D01*
X132135619Y-107262872D01*
X132135619Y-107405729D01*
X132183238Y-107506919D01*
X132230857Y-107560491D01*
X132802285Y-107965252D02*
X132802285Y-108346205D01*
X133135619Y-108149776D02*
X132278476Y-108042633D01*
X132183238Y-108078348D01*
X132135619Y-108167633D01*
X132135619Y-108262872D01*
X132135619Y-108596205D02*
X133135619Y-108721205D01*
X132135619Y-109024776D02*
X132659428Y-109090252D01*
X132754666Y-109054538D01*
X132802285Y-108965252D01*
X132802285Y-108822395D01*
X132754666Y-108721205D01*
X132707047Y-108667633D01*
X132135619Y-110262872D02*
X133135619Y-110387872D01*
X133135619Y-110768824D01*
X133088000Y-110858110D01*
X133040380Y-110899776D01*
X132945142Y-110935491D01*
X132802285Y-110917633D01*
X132707047Y-110858110D01*
X132659428Y-110804538D01*
X132611809Y-110703348D01*
X132611809Y-110322395D01*
X132135619Y-111262872D02*
X132802285Y-111346205D01*
X133135619Y-111387872D02*
X133088000Y-111334300D01*
X133040380Y-111375967D01*
X133088000Y-111429538D01*
X133135619Y-111387872D01*
X133040380Y-111375967D01*
X132802285Y-111822395D02*
X132135619Y-111739062D01*
X132707047Y-111810491D02*
X132754666Y-111864062D01*
X132802285Y-111965252D01*
X132802285Y-112108110D01*
X132754666Y-112197395D01*
X132659428Y-112233110D01*
X132135619Y-112167633D01*
X132183238Y-112602157D02*
X132135619Y-112691443D01*
X132135619Y-112881919D01*
X132183238Y-112983110D01*
X132278476Y-113042633D01*
X132326095Y-113048586D01*
X132421333Y-113012872D01*
X132468952Y-112923586D01*
X132468952Y-112780729D01*
X132516571Y-112691443D01*
X132611809Y-112655729D01*
X132659428Y-112661681D01*
X132754666Y-112721205D01*
X132802285Y-112822395D01*
X132802285Y-112965252D01*
X132754666Y-113054538D01*
X126579428Y-94827285D02*
X126579428Y-94077285D01*
X126865142Y-94077285D01*
X126936571Y-94113000D01*
X126972285Y-94148714D01*
X127008000Y-94220142D01*
X127008000Y-94327285D01*
X126972285Y-94398714D01*
X126936571Y-94434428D01*
X126865142Y-94470142D01*
X126579428Y-94470142D01*
X127579428Y-94434428D02*
X127686571Y-94470142D01*
X127722285Y-94505857D01*
X127758000Y-94577285D01*
X127758000Y-94684428D01*
X127722285Y-94755857D01*
X127686571Y-94791571D01*
X127615142Y-94827285D01*
X127329428Y-94827285D01*
X127329428Y-94077285D01*
X127579428Y-94077285D01*
X127650857Y-94113000D01*
X127686571Y-94148714D01*
X127722285Y-94220142D01*
X127722285Y-94291571D01*
X127686571Y-94363000D01*
X127650857Y-94398714D01*
X127579428Y-94434428D01*
X127329428Y-94434428D01*
X128008000Y-94077285D02*
X128508000Y-94077285D01*
X128186571Y-94827285D01*
X127468380Y-97480380D02*
X127135047Y-97004190D01*
X126896952Y-97480380D02*
X126896952Y-96480380D01*
X127277904Y-96480380D01*
X127373142Y-96528000D01*
X127420761Y-96575619D01*
X127468380Y-96670857D01*
X127468380Y-96813714D01*
X127420761Y-96908952D01*
X127373142Y-96956571D01*
X127277904Y-97004190D01*
X126896952Y-97004190D01*
X127849333Y-97432761D02*
X127992190Y-97480380D01*
X128230285Y-97480380D01*
X128325523Y-97432761D01*
X128373142Y-97385142D01*
X128420761Y-97289904D01*
X128420761Y-97194666D01*
X128373142Y-97099428D01*
X128325523Y-97051809D01*
X128230285Y-97004190D01*
X128039809Y-96956571D01*
X127944571Y-96908952D01*
X127896952Y-96861333D01*
X127849333Y-96766095D01*
X127849333Y-96670857D01*
X127896952Y-96575619D01*
X127944571Y-96528000D01*
X128039809Y-96480380D01*
X128277904Y-96480380D01*
X128420761Y-96528000D01*
X128706476Y-96480380D02*
X129277904Y-96480380D01*
X128992190Y-97480380D02*
X128992190Y-96480380D01*
X126682666Y-99020380D02*
X127016000Y-100020380D01*
X127349333Y-99020380D01*
X128254095Y-99925142D02*
X128206476Y-99972761D01*
X128063619Y-100020380D01*
X127968380Y-100020380D01*
X127825523Y-99972761D01*
X127730285Y-99877523D01*
X127682666Y-99782285D01*
X127635047Y-99591809D01*
X127635047Y-99448952D01*
X127682666Y-99258476D01*
X127730285Y-99163238D01*
X127825523Y-99068000D01*
X127968380Y-99020380D01*
X128063619Y-99020380D01*
X128206476Y-99068000D01*
X128254095Y-99115619D01*
X129254095Y-99925142D02*
X129206476Y-99972761D01*
X129063619Y-100020380D01*
X128968380Y-100020380D01*
X128825523Y-99972761D01*
X128730285Y-99877523D01*
X128682666Y-99782285D01*
X128635047Y-99591809D01*
X128635047Y-99448952D01*
X128682666Y-99258476D01*
X128730285Y-99163238D01*
X128825523Y-99068000D01*
X128968380Y-99020380D01*
X129063619Y-99020380D01*
X129206476Y-99068000D01*
X129254095Y-99115619D01*
X127254095Y-101608000D02*
X127158857Y-101560380D01*
X127016000Y-101560380D01*
X126873142Y-101608000D01*
X126777904Y-101703238D01*
X126730285Y-101798476D01*
X126682666Y-101988952D01*
X126682666Y-102131809D01*
X126730285Y-102322285D01*
X126777904Y-102417523D01*
X126873142Y-102512761D01*
X127016000Y-102560380D01*
X127111238Y-102560380D01*
X127254095Y-102512761D01*
X127301714Y-102465142D01*
X127301714Y-102131809D01*
X127111238Y-102131809D01*
X127730285Y-102560380D02*
X127730285Y-101560380D01*
X128301714Y-102560380D01*
X128301714Y-101560380D01*
X128777904Y-102560380D02*
X128777904Y-101560380D01*
X129016000Y-101560380D01*
X129158857Y-101608000D01*
X129254095Y-101703238D01*
X129301714Y-101798476D01*
X129349333Y-101988952D01*
X129349333Y-102131809D01*
X129301714Y-102322285D01*
X129254095Y-102417523D01*
X129158857Y-102512761D01*
X129016000Y-102560380D01*
X128777904Y-102560380D01*
X126732357Y-104100380D02*
X127399023Y-105100380D01*
X127399023Y-104100380D02*
X126732357Y-105100380D01*
X127637119Y-104100380D02*
X128208547Y-104100380D01*
X127922833Y-105100380D02*
X127922833Y-104100380D01*
X128494261Y-104814666D02*
X128970452Y-104814666D01*
X128399023Y-105100380D02*
X128732357Y-104100380D01*
X129065690Y-105100380D01*
X129875214Y-105100380D02*
X129399023Y-105100380D01*
X129399023Y-104100380D01*
X130160928Y-104195619D02*
X130208547Y-104148000D01*
X130303785Y-104100380D01*
X130541880Y-104100380D01*
X130637119Y-104148000D01*
X130684738Y-104195619D01*
X130732357Y-104290857D01*
X130732357Y-104386095D01*
X130684738Y-104528952D01*
X130113309Y-105100380D01*
X130732357Y-105100380D01*
X126732357Y-106640380D02*
X127399023Y-107640380D01*
X127399023Y-106640380D02*
X126732357Y-107640380D01*
X127637119Y-106640380D02*
X128208547Y-106640380D01*
X127922833Y-107640380D02*
X127922833Y-106640380D01*
X128494261Y-107354666D02*
X128970452Y-107354666D01*
X128399023Y-107640380D02*
X128732357Y-106640380D01*
X129065690Y-107640380D01*
X129875214Y-107640380D02*
X129399023Y-107640380D01*
X129399023Y-106640380D01*
X130732357Y-107640380D02*
X130160928Y-107640380D01*
X130446642Y-107640380D02*
X130446642Y-106640380D01*
X130351404Y-106783238D01*
X130256166Y-106878476D01*
X130160928Y-106926095D01*
X126777904Y-115260380D02*
X126777904Y-114260380D01*
X127158857Y-114260380D01*
X127254095Y-114308000D01*
X127301714Y-114355619D01*
X127349333Y-114450857D01*
X127349333Y-114593714D01*
X127301714Y-114688952D01*
X127254095Y-114736571D01*
X127158857Y-114784190D01*
X126777904Y-114784190D01*
X127777904Y-115260380D02*
X127777904Y-114260380D01*
X128016000Y-114260380D01*
X128158857Y-114308000D01*
X128254095Y-114403238D01*
X128301714Y-114498476D01*
X128349333Y-114688952D01*
X128349333Y-114831809D01*
X128301714Y-115022285D01*
X128254095Y-115117523D01*
X128158857Y-115212761D01*
X128016000Y-115260380D01*
X127777904Y-115260380D01*
X128730285Y-114355619D02*
X128777904Y-114308000D01*
X128873142Y-114260380D01*
X129111238Y-114260380D01*
X129206476Y-114308000D01*
X129254095Y-114355619D01*
X129301714Y-114450857D01*
X129301714Y-114546095D01*
X129254095Y-114688952D01*
X128682666Y-115260380D01*
X129301714Y-115260380D01*
X126777904Y-110180380D02*
X126777904Y-109180380D01*
X127158857Y-109180380D01*
X127254095Y-109228000D01*
X127301714Y-109275619D01*
X127349333Y-109370857D01*
X127349333Y-109513714D01*
X127301714Y-109608952D01*
X127254095Y-109656571D01*
X127158857Y-109704190D01*
X126777904Y-109704190D01*
X127777904Y-110180380D02*
X127777904Y-109180380D01*
X128016000Y-109180380D01*
X128158857Y-109228000D01*
X128254095Y-109323238D01*
X128301714Y-109418476D01*
X128349333Y-109608952D01*
X128349333Y-109751809D01*
X128301714Y-109942285D01*
X128254095Y-110037523D01*
X128158857Y-110132761D01*
X128016000Y-110180380D01*
X127777904Y-110180380D01*
X128968380Y-109180380D02*
X129063619Y-109180380D01*
X129158857Y-109228000D01*
X129206476Y-109275619D01*
X129254095Y-109370857D01*
X129301714Y-109561333D01*
X129301714Y-109799428D01*
X129254095Y-109989904D01*
X129206476Y-110085142D01*
X129158857Y-110132761D01*
X129063619Y-110180380D01*
X128968380Y-110180380D01*
X128873142Y-110132761D01*
X128825523Y-110085142D01*
X128777904Y-109989904D01*
X128730285Y-109799428D01*
X128730285Y-109561333D01*
X128777904Y-109370857D01*
X128825523Y-109275619D01*
X128873142Y-109228000D01*
X128968380Y-109180380D01*
X126777904Y-112720380D02*
X126777904Y-111720380D01*
X127158857Y-111720380D01*
X127254095Y-111768000D01*
X127301714Y-111815619D01*
X127349333Y-111910857D01*
X127349333Y-112053714D01*
X127301714Y-112148952D01*
X127254095Y-112196571D01*
X127158857Y-112244190D01*
X126777904Y-112244190D01*
X127777904Y-112720380D02*
X127777904Y-111720380D01*
X128016000Y-111720380D01*
X128158857Y-111768000D01*
X128254095Y-111863238D01*
X128301714Y-111958476D01*
X128349333Y-112148952D01*
X128349333Y-112291809D01*
X128301714Y-112482285D01*
X128254095Y-112577523D01*
X128158857Y-112672761D01*
X128016000Y-112720380D01*
X127777904Y-112720380D01*
X129301714Y-112720380D02*
X128730285Y-112720380D01*
X129016000Y-112720380D02*
X129016000Y-111720380D01*
X128920761Y-111863238D01*
X128825523Y-111958476D01*
X128730285Y-112006095D01*
X126777904Y-117800380D02*
X126777904Y-116800380D01*
X127158857Y-116800380D01*
X127254095Y-116848000D01*
X127301714Y-116895619D01*
X127349333Y-116990857D01*
X127349333Y-117133714D01*
X127301714Y-117228952D01*
X127254095Y-117276571D01*
X127158857Y-117324190D01*
X126777904Y-117324190D01*
X127777904Y-117800380D02*
X127777904Y-116800380D01*
X128016000Y-116800380D01*
X128158857Y-116848000D01*
X128254095Y-116943238D01*
X128301714Y-117038476D01*
X128349333Y-117228952D01*
X128349333Y-117371809D01*
X128301714Y-117562285D01*
X128254095Y-117657523D01*
X128158857Y-117752761D01*
X128016000Y-117800380D01*
X127777904Y-117800380D01*
X128682666Y-116800380D02*
X129301714Y-116800380D01*
X128968380Y-117181333D01*
X129111238Y-117181333D01*
X129206476Y-117228952D01*
X129254095Y-117276571D01*
X129301714Y-117371809D01*
X129301714Y-117609904D01*
X129254095Y-117705142D01*
X129206476Y-117752761D01*
X129111238Y-117800380D01*
X128825523Y-117800380D01*
X128730285Y-117752761D01*
X128682666Y-117705142D01*
X126777904Y-120340380D02*
X126777904Y-119340380D01*
X127158857Y-119340380D01*
X127254095Y-119388000D01*
X127301714Y-119435619D01*
X127349333Y-119530857D01*
X127349333Y-119673714D01*
X127301714Y-119768952D01*
X127254095Y-119816571D01*
X127158857Y-119864190D01*
X126777904Y-119864190D01*
X127777904Y-120340380D02*
X127777904Y-119340380D01*
X128016000Y-119340380D01*
X128158857Y-119388000D01*
X128254095Y-119483238D01*
X128301714Y-119578476D01*
X128349333Y-119768952D01*
X128349333Y-119911809D01*
X128301714Y-120102285D01*
X128254095Y-120197523D01*
X128158857Y-120292761D01*
X128016000Y-120340380D01*
X127777904Y-120340380D01*
X129254095Y-119340380D02*
X128777904Y-119340380D01*
X128730285Y-119816571D01*
X128777904Y-119768952D01*
X128873142Y-119721333D01*
X129111238Y-119721333D01*
X129206476Y-119768952D01*
X129254095Y-119816571D01*
X129301714Y-119911809D01*
X129301714Y-120149904D01*
X129254095Y-120245142D01*
X129206476Y-120292761D01*
X129111238Y-120340380D01*
X128873142Y-120340380D01*
X128777904Y-120292761D01*
X128730285Y-120245142D01*
X140839142Y-94827285D02*
X140839142Y-94077285D01*
X141124857Y-94077285D01*
X141196285Y-94113000D01*
X141232000Y-94148714D01*
X141267714Y-94220142D01*
X141267714Y-94327285D01*
X141232000Y-94398714D01*
X141196285Y-94434428D01*
X141124857Y-94470142D01*
X140839142Y-94470142D01*
X141589142Y-94434428D02*
X141839142Y-94434428D01*
X141946285Y-94827285D02*
X141589142Y-94827285D01*
X141589142Y-94077285D01*
X141946285Y-94077285D01*
X142232000Y-94148714D02*
X142267714Y-94113000D01*
X142339142Y-94077285D01*
X142517714Y-94077285D01*
X142589142Y-94113000D01*
X142624857Y-94148714D01*
X142660571Y-94220142D01*
X142660571Y-94291571D01*
X142624857Y-94398714D01*
X142196285Y-94827285D01*
X142660571Y-94827285D01*
X139985904Y-97480380D02*
X139985904Y-96480380D01*
X140366857Y-96480380D01*
X140462095Y-96528000D01*
X140509714Y-96575619D01*
X140557333Y-96670857D01*
X140557333Y-96813714D01*
X140509714Y-96908952D01*
X140462095Y-96956571D01*
X140366857Y-97004190D01*
X139985904Y-97004190D01*
X141557333Y-97385142D02*
X141509714Y-97432761D01*
X141366857Y-97480380D01*
X141271619Y-97480380D01*
X141128761Y-97432761D01*
X141033523Y-97337523D01*
X140985904Y-97242285D01*
X140938285Y-97051809D01*
X140938285Y-96908952D01*
X140985904Y-96718476D01*
X141033523Y-96623238D01*
X141128761Y-96528000D01*
X141271619Y-96480380D01*
X141366857Y-96480380D01*
X141509714Y-96528000D01*
X141557333Y-96575619D01*
X141890666Y-96480380D02*
X142557333Y-96480380D01*
X142128761Y-97480380D01*
X139985904Y-100020380D02*
X139985904Y-99020380D01*
X140366857Y-99020380D01*
X140462095Y-99068000D01*
X140509714Y-99115619D01*
X140557333Y-99210857D01*
X140557333Y-99353714D01*
X140509714Y-99448952D01*
X140462095Y-99496571D01*
X140366857Y-99544190D01*
X139985904Y-99544190D01*
X141557333Y-99925142D02*
X141509714Y-99972761D01*
X141366857Y-100020380D01*
X141271619Y-100020380D01*
X141128761Y-99972761D01*
X141033523Y-99877523D01*
X140985904Y-99782285D01*
X140938285Y-99591809D01*
X140938285Y-99448952D01*
X140985904Y-99258476D01*
X141033523Y-99163238D01*
X141128761Y-99068000D01*
X141271619Y-99020380D01*
X141366857Y-99020380D01*
X141509714Y-99068000D01*
X141557333Y-99115619D01*
X142414476Y-99020380D02*
X142224000Y-99020380D01*
X142128761Y-99068000D01*
X142081142Y-99115619D01*
X141985904Y-99258476D01*
X141938285Y-99448952D01*
X141938285Y-99829904D01*
X141985904Y-99925142D01*
X142033523Y-99972761D01*
X142128761Y-100020380D01*
X142319238Y-100020380D01*
X142414476Y-99972761D01*
X142462095Y-99925142D01*
X142509714Y-99829904D01*
X142509714Y-99591809D01*
X142462095Y-99496571D01*
X142414476Y-99448952D01*
X142319238Y-99401333D01*
X142128761Y-99401333D01*
X142033523Y-99448952D01*
X141985904Y-99496571D01*
X141938285Y-99591809D01*
X139985904Y-102560380D02*
X139985904Y-101560380D01*
X140366857Y-101560380D01*
X140462095Y-101608000D01*
X140509714Y-101655619D01*
X140557333Y-101750857D01*
X140557333Y-101893714D01*
X140509714Y-101988952D01*
X140462095Y-102036571D01*
X140366857Y-102084190D01*
X139985904Y-102084190D01*
X141319238Y-102036571D02*
X141462095Y-102084190D01*
X141509714Y-102131809D01*
X141557333Y-102227047D01*
X141557333Y-102369904D01*
X141509714Y-102465142D01*
X141462095Y-102512761D01*
X141366857Y-102560380D01*
X140985904Y-102560380D01*
X140985904Y-101560380D01*
X141319238Y-101560380D01*
X141414476Y-101608000D01*
X141462095Y-101655619D01*
X141509714Y-101750857D01*
X141509714Y-101846095D01*
X141462095Y-101941333D01*
X141414476Y-101988952D01*
X141319238Y-102036571D01*
X140985904Y-102036571D01*
X142414476Y-101560380D02*
X142224000Y-101560380D01*
X142128761Y-101608000D01*
X142081142Y-101655619D01*
X141985904Y-101798476D01*
X141938285Y-101988952D01*
X141938285Y-102369904D01*
X141985904Y-102465142D01*
X142033523Y-102512761D01*
X142128761Y-102560380D01*
X142319238Y-102560380D01*
X142414476Y-102512761D01*
X142462095Y-102465142D01*
X142509714Y-102369904D01*
X142509714Y-102131809D01*
X142462095Y-102036571D01*
X142414476Y-101988952D01*
X142319238Y-101941333D01*
X142128761Y-101941333D01*
X142033523Y-101988952D01*
X141985904Y-102036571D01*
X141938285Y-102131809D01*
X139985904Y-105100380D02*
X139985904Y-104100380D01*
X140366857Y-104100380D01*
X140462095Y-104148000D01*
X140509714Y-104195619D01*
X140557333Y-104290857D01*
X140557333Y-104433714D01*
X140509714Y-104528952D01*
X140462095Y-104576571D01*
X140366857Y-104624190D01*
X139985904Y-104624190D01*
X141319238Y-104576571D02*
X141462095Y-104624190D01*
X141509714Y-104671809D01*
X141557333Y-104767047D01*
X141557333Y-104909904D01*
X141509714Y-105005142D01*
X141462095Y-105052761D01*
X141366857Y-105100380D01*
X140985904Y-105100380D01*
X140985904Y-104100380D01*
X141319238Y-104100380D01*
X141414476Y-104148000D01*
X141462095Y-104195619D01*
X141509714Y-104290857D01*
X141509714Y-104386095D01*
X141462095Y-104481333D01*
X141414476Y-104528952D01*
X141319238Y-104576571D01*
X140985904Y-104576571D01*
X142462095Y-104100380D02*
X141985904Y-104100380D01*
X141938285Y-104576571D01*
X141985904Y-104528952D01*
X142081142Y-104481333D01*
X142319238Y-104481333D01*
X142414476Y-104528952D01*
X142462095Y-104576571D01*
X142509714Y-104671809D01*
X142509714Y-104909904D01*
X142462095Y-105005142D01*
X142414476Y-105052761D01*
X142319238Y-105100380D01*
X142081142Y-105100380D01*
X141985904Y-105052761D01*
X141938285Y-105005142D01*
X139985904Y-107640380D02*
X139985904Y-106640380D01*
X140366857Y-106640380D01*
X140462095Y-106688000D01*
X140509714Y-106735619D01*
X140557333Y-106830857D01*
X140557333Y-106973714D01*
X140509714Y-107068952D01*
X140462095Y-107116571D01*
X140366857Y-107164190D01*
X139985904Y-107164190D01*
X141319238Y-107116571D02*
X141462095Y-107164190D01*
X141509714Y-107211809D01*
X141557333Y-107307047D01*
X141557333Y-107449904D01*
X141509714Y-107545142D01*
X141462095Y-107592761D01*
X141366857Y-107640380D01*
X140985904Y-107640380D01*
X140985904Y-106640380D01*
X141319238Y-106640380D01*
X141414476Y-106688000D01*
X141462095Y-106735619D01*
X141509714Y-106830857D01*
X141509714Y-106926095D01*
X141462095Y-107021333D01*
X141414476Y-107068952D01*
X141319238Y-107116571D01*
X140985904Y-107116571D01*
X142414476Y-106973714D02*
X142414476Y-107640380D01*
X142176380Y-106592761D02*
X141938285Y-107307047D01*
X142557333Y-107307047D01*
X139985904Y-110180380D02*
X139985904Y-109180380D01*
X140366857Y-109180380D01*
X140462095Y-109228000D01*
X140509714Y-109275619D01*
X140557333Y-109370857D01*
X140557333Y-109513714D01*
X140509714Y-109608952D01*
X140462095Y-109656571D01*
X140366857Y-109704190D01*
X139985904Y-109704190D01*
X140985904Y-110180380D02*
X140985904Y-109180380D01*
X141224000Y-109180380D01*
X141366857Y-109228000D01*
X141462095Y-109323238D01*
X141509714Y-109418476D01*
X141557333Y-109608952D01*
X141557333Y-109751809D01*
X141509714Y-109942285D01*
X141462095Y-110037523D01*
X141366857Y-110132761D01*
X141224000Y-110180380D01*
X140985904Y-110180380D01*
X141890666Y-109180380D02*
X142557333Y-109180380D01*
X142128761Y-110180380D01*
X139985904Y-112720380D02*
X139985904Y-111720380D01*
X140366857Y-111720380D01*
X140462095Y-111768000D01*
X140509714Y-111815619D01*
X140557333Y-111910857D01*
X140557333Y-112053714D01*
X140509714Y-112148952D01*
X140462095Y-112196571D01*
X140366857Y-112244190D01*
X139985904Y-112244190D01*
X140985904Y-112720380D02*
X140985904Y-111720380D01*
X141224000Y-111720380D01*
X141366857Y-111768000D01*
X141462095Y-111863238D01*
X141509714Y-111958476D01*
X141557333Y-112148952D01*
X141557333Y-112291809D01*
X141509714Y-112482285D01*
X141462095Y-112577523D01*
X141366857Y-112672761D01*
X141224000Y-112720380D01*
X140985904Y-112720380D01*
X142414476Y-111720380D02*
X142224000Y-111720380D01*
X142128761Y-111768000D01*
X142081142Y-111815619D01*
X141985904Y-111958476D01*
X141938285Y-112148952D01*
X141938285Y-112529904D01*
X141985904Y-112625142D01*
X142033523Y-112672761D01*
X142128761Y-112720380D01*
X142319238Y-112720380D01*
X142414476Y-112672761D01*
X142462095Y-112625142D01*
X142509714Y-112529904D01*
X142509714Y-112291809D01*
X142462095Y-112196571D01*
X142414476Y-112148952D01*
X142319238Y-112101333D01*
X142128761Y-112101333D01*
X142033523Y-112148952D01*
X141985904Y-112196571D01*
X141938285Y-112291809D01*
X139985904Y-115260380D02*
X139985904Y-114260380D01*
X140366857Y-114260380D01*
X140462095Y-114308000D01*
X140509714Y-114355619D01*
X140557333Y-114450857D01*
X140557333Y-114593714D01*
X140509714Y-114688952D01*
X140462095Y-114736571D01*
X140366857Y-114784190D01*
X139985904Y-114784190D01*
X140985904Y-115260380D02*
X140985904Y-114260380D01*
X141224000Y-114260380D01*
X141366857Y-114308000D01*
X141462095Y-114403238D01*
X141509714Y-114498476D01*
X141557333Y-114688952D01*
X141557333Y-114831809D01*
X141509714Y-115022285D01*
X141462095Y-115117523D01*
X141366857Y-115212761D01*
X141224000Y-115260380D01*
X140985904Y-115260380D01*
X142414476Y-114593714D02*
X142414476Y-115260380D01*
X142176380Y-114212761D02*
X141938285Y-114927047D01*
X142557333Y-114927047D01*
X139126690Y-117514666D02*
X139602880Y-117514666D01*
X139031452Y-117800380D02*
X139364785Y-116800380D01*
X139698119Y-117800380D01*
X139888595Y-116800380D02*
X140221928Y-117800380D01*
X140555261Y-116800380D01*
X141460023Y-117705142D02*
X141412404Y-117752761D01*
X141269547Y-117800380D01*
X141174309Y-117800380D01*
X141031452Y-117752761D01*
X140936214Y-117657523D01*
X140888595Y-117562285D01*
X140840976Y-117371809D01*
X140840976Y-117228952D01*
X140888595Y-117038476D01*
X140936214Y-116943238D01*
X141031452Y-116848000D01*
X141174309Y-116800380D01*
X141269547Y-116800380D01*
X141412404Y-116848000D01*
X141460023Y-116895619D01*
X142460023Y-117705142D02*
X142412404Y-117752761D01*
X142269547Y-117800380D01*
X142174309Y-117800380D01*
X142031452Y-117752761D01*
X141936214Y-117657523D01*
X141888595Y-117562285D01*
X141840976Y-117371809D01*
X141840976Y-117228952D01*
X141888595Y-117038476D01*
X141936214Y-116943238D01*
X142031452Y-116848000D01*
X142174309Y-116800380D01*
X142269547Y-116800380D01*
X142412404Y-116848000D01*
X142460023Y-116895619D01*
X140462095Y-119388000D02*
X140366857Y-119340380D01*
X140224000Y-119340380D01*
X140081142Y-119388000D01*
X139985904Y-119483238D01*
X139938285Y-119578476D01*
X139890666Y-119768952D01*
X139890666Y-119911809D01*
X139938285Y-120102285D01*
X139985904Y-120197523D01*
X140081142Y-120292761D01*
X140224000Y-120340380D01*
X140319238Y-120340380D01*
X140462095Y-120292761D01*
X140509714Y-120245142D01*
X140509714Y-119911809D01*
X140319238Y-119911809D01*
X140938285Y-120340380D02*
X140938285Y-119340380D01*
X141509714Y-120340380D01*
X141509714Y-119340380D01*
X141985904Y-120340380D02*
X141985904Y-119340380D01*
X142224000Y-119340380D01*
X142366857Y-119388000D01*
X142462095Y-119483238D01*
X142509714Y-119578476D01*
X142557333Y-119768952D01*
X142557333Y-119911809D01*
X142509714Y-120102285D01*
X142462095Y-120197523D01*
X142366857Y-120292761D01*
X142224000Y-120340380D01*
X141985904Y-120340380D01*
X138120380Y-74981889D02*
X137120380Y-74856889D01*
X138120380Y-74410461D01*
X137120380Y-74285461D01*
X138120380Y-73791413D02*
X138072761Y-73880699D01*
X138025142Y-73922366D01*
X137929904Y-73958080D01*
X137644190Y-73922366D01*
X137548952Y-73862842D01*
X137501333Y-73809270D01*
X137453714Y-73708080D01*
X137453714Y-73565223D01*
X137501333Y-73475937D01*
X137548952Y-73434270D01*
X137644190Y-73398556D01*
X137929904Y-73434270D01*
X138025142Y-73493794D01*
X138072761Y-73547366D01*
X138120380Y-73648556D01*
X138120380Y-73791413D01*
X138120380Y-73029508D02*
X137453714Y-72946175D01*
X137644190Y-72969985D02*
X137548952Y-72910461D01*
X137501333Y-72856889D01*
X137453714Y-72755699D01*
X137453714Y-72660461D01*
X137453714Y-72469985D02*
X137453714Y-72089032D01*
X137120380Y-72285461D02*
X137977523Y-72392604D01*
X138072761Y-72356889D01*
X138120380Y-72267604D01*
X138120380Y-72172366D01*
X138120380Y-71839032D02*
X137120380Y-71714032D01*
X138120380Y-71410461D02*
X137596571Y-71344985D01*
X137501333Y-71380699D01*
X137453714Y-71469985D01*
X137453714Y-71612842D01*
X137501333Y-71714032D01*
X137548952Y-71767604D01*
X138120380Y-70172366D02*
X137120380Y-70047366D01*
X137120380Y-69666413D01*
X137168000Y-69577127D01*
X137215619Y-69535461D01*
X137310857Y-69499747D01*
X137453714Y-69517604D01*
X137548952Y-69577127D01*
X137596571Y-69630699D01*
X137644190Y-69731889D01*
X137644190Y-70112842D01*
X138120380Y-69172366D02*
X137453714Y-69089032D01*
X137120380Y-69047366D02*
X137168000Y-69100937D01*
X137215619Y-69059270D01*
X137168000Y-69005699D01*
X137120380Y-69047366D01*
X137215619Y-69059270D01*
X137453714Y-68612842D02*
X138120380Y-68696175D01*
X137548952Y-68624747D02*
X137501333Y-68571175D01*
X137453714Y-68469985D01*
X137453714Y-68327127D01*
X137501333Y-68237842D01*
X137596571Y-68202127D01*
X138120380Y-68267604D01*
X138072761Y-67833080D02*
X138120380Y-67743794D01*
X138120380Y-67553318D01*
X138072761Y-67452127D01*
X137977523Y-67392604D01*
X137929904Y-67386651D01*
X137834666Y-67422366D01*
X137787047Y-67511651D01*
X137787047Y-67654508D01*
X137739428Y-67743794D01*
X137644190Y-67779508D01*
X137596571Y-67773556D01*
X137501333Y-67714032D01*
X137453714Y-67612842D01*
X137453714Y-67469985D01*
X137501333Y-67380699D01*
X133135619Y-67621205D02*
X132135619Y-67734300D01*
X132849904Y-68014062D01*
X132135619Y-68115252D01*
X133135619Y-68478348D01*
X132183238Y-69121205D02*
X132135619Y-69020014D01*
X132135619Y-68829538D01*
X132183238Y-68740252D01*
X132278476Y-68704538D01*
X132659428Y-68752157D01*
X132754666Y-68811681D01*
X132802285Y-68912872D01*
X132802285Y-69103348D01*
X132754666Y-69192633D01*
X132659428Y-69228348D01*
X132564190Y-69216443D01*
X132468952Y-68728348D01*
X132183238Y-69549776D02*
X132135619Y-69639062D01*
X132135619Y-69829538D01*
X132183238Y-69930729D01*
X132278476Y-69990252D01*
X132326095Y-69996205D01*
X132421333Y-69960491D01*
X132468952Y-69871205D01*
X132468952Y-69728348D01*
X132516571Y-69639062D01*
X132611809Y-69603348D01*
X132659428Y-69609300D01*
X132754666Y-69668824D01*
X132802285Y-69770014D01*
X132802285Y-69912872D01*
X132754666Y-70002157D01*
X132802285Y-70341443D02*
X132802285Y-70722395D01*
X133135619Y-70525967D02*
X132278476Y-70418824D01*
X132183238Y-70454538D01*
X132135619Y-70543824D01*
X132135619Y-70639062D01*
X132135619Y-71734300D02*
X133135619Y-71859300D01*
X133135619Y-72240252D01*
X133088000Y-72329538D01*
X133040380Y-72371205D01*
X132945142Y-72406919D01*
X132802285Y-72389062D01*
X132707047Y-72329538D01*
X132659428Y-72275967D01*
X132611809Y-72174776D01*
X132611809Y-71793824D01*
X132135619Y-72734300D02*
X132802285Y-72817633D01*
X133135619Y-72859300D02*
X133088000Y-72805729D01*
X133040380Y-72847395D01*
X133088000Y-72900967D01*
X133135619Y-72859300D01*
X133040380Y-72847395D01*
X132802285Y-73293824D02*
X132135619Y-73210491D01*
X132707047Y-73281919D02*
X132754666Y-73335491D01*
X132802285Y-73436681D01*
X132802285Y-73579538D01*
X132754666Y-73668824D01*
X132659428Y-73704538D01*
X132135619Y-73639062D01*
X132183238Y-74073586D02*
X132135619Y-74162872D01*
X132135619Y-74353348D01*
X132183238Y-74454538D01*
X132278476Y-74514062D01*
X132326095Y-74520014D01*
X132421333Y-74484300D01*
X132468952Y-74395014D01*
X132468952Y-74252157D01*
X132516571Y-74162872D01*
X132611809Y-74127157D01*
X132659428Y-74133110D01*
X132754666Y-74192633D01*
X132802285Y-74293824D01*
X132802285Y-74436681D01*
X132754666Y-74525967D01*
X141240000Y-86457285D02*
X141490000Y-87207285D01*
X141740000Y-86457285D01*
X142418571Y-87135857D02*
X142382857Y-87171571D01*
X142275714Y-87207285D01*
X142204285Y-87207285D01*
X142097142Y-87171571D01*
X142025714Y-87100142D01*
X141990000Y-87028714D01*
X141954285Y-86885857D01*
X141954285Y-86778714D01*
X141990000Y-86635857D01*
X142025714Y-86564428D01*
X142097142Y-86493000D01*
X142204285Y-86457285D01*
X142275714Y-86457285D01*
X142382857Y-86493000D01*
X142418571Y-86528714D01*
X143168571Y-87135857D02*
X143132857Y-87171571D01*
X143025714Y-87207285D01*
X142954285Y-87207285D01*
X142847142Y-87171571D01*
X142775714Y-87100142D01*
X142740000Y-87028714D01*
X142704285Y-86885857D01*
X142704285Y-86778714D01*
X142740000Y-86635857D01*
X142775714Y-86564428D01*
X142847142Y-86493000D01*
X142954285Y-86457285D01*
X143025714Y-86457285D01*
X143132857Y-86493000D01*
X143168571Y-86528714D01*
X140970095Y-84844000D02*
X140874857Y-84796380D01*
X140732000Y-84796380D01*
X140589142Y-84844000D01*
X140493904Y-84939238D01*
X140446285Y-85034476D01*
X140398666Y-85224952D01*
X140398666Y-85367809D01*
X140446285Y-85558285D01*
X140493904Y-85653523D01*
X140589142Y-85748761D01*
X140732000Y-85796380D01*
X140827238Y-85796380D01*
X140970095Y-85748761D01*
X141017714Y-85701142D01*
X141017714Y-85367809D01*
X140827238Y-85367809D01*
X141446285Y-85796380D02*
X141446285Y-84796380D01*
X142017714Y-85796380D01*
X142017714Y-84796380D01*
X142493904Y-85796380D02*
X142493904Y-84796380D01*
X142732000Y-84796380D01*
X142874857Y-84844000D01*
X142970095Y-84939238D01*
X143017714Y-85034476D01*
X143065333Y-85224952D01*
X143065333Y-85367809D01*
X143017714Y-85558285D01*
X142970095Y-85653523D01*
X142874857Y-85748761D01*
X142732000Y-85796380D01*
X142493904Y-85796380D01*
X140565333Y-83256380D02*
X140565333Y-82256380D01*
X140946285Y-82256380D01*
X141041523Y-82304000D01*
X141089142Y-82351619D01*
X141136761Y-82446857D01*
X141136761Y-82589714D01*
X141089142Y-82684952D01*
X141041523Y-82732571D01*
X140946285Y-82780190D01*
X140565333Y-82780190D01*
X141898666Y-82732571D02*
X141565333Y-82732571D01*
X141565333Y-83256380D02*
X141565333Y-82256380D01*
X142041523Y-82256380D01*
X142327238Y-82256380D02*
X142993904Y-82256380D01*
X142565333Y-83256380D01*
X140565333Y-80716380D02*
X140565333Y-79716380D01*
X140946285Y-79716380D01*
X141041523Y-79764000D01*
X141089142Y-79811619D01*
X141136761Y-79906857D01*
X141136761Y-80049714D01*
X141089142Y-80144952D01*
X141041523Y-80192571D01*
X140946285Y-80240190D01*
X140565333Y-80240190D01*
X141898666Y-80192571D02*
X141565333Y-80192571D01*
X141565333Y-80716380D02*
X141565333Y-79716380D01*
X142041523Y-79716380D01*
X142851047Y-79716380D02*
X142660571Y-79716380D01*
X142565333Y-79764000D01*
X142517714Y-79811619D01*
X142422476Y-79954476D01*
X142374857Y-80144952D01*
X142374857Y-80525904D01*
X142422476Y-80621142D01*
X142470095Y-80668761D01*
X142565333Y-80716380D01*
X142755809Y-80716380D01*
X142851047Y-80668761D01*
X142898666Y-80621142D01*
X142946285Y-80525904D01*
X142946285Y-80287809D01*
X142898666Y-80192571D01*
X142851047Y-80144952D01*
X142755809Y-80097333D01*
X142565333Y-80097333D01*
X142470095Y-80144952D01*
X142422476Y-80192571D01*
X142374857Y-80287809D01*
X140565333Y-78176380D02*
X140565333Y-77176380D01*
X140946285Y-77176380D01*
X141041523Y-77224000D01*
X141089142Y-77271619D01*
X141136761Y-77366857D01*
X141136761Y-77509714D01*
X141089142Y-77604952D01*
X141041523Y-77652571D01*
X140946285Y-77700190D01*
X140565333Y-77700190D01*
X141898666Y-77652571D02*
X141565333Y-77652571D01*
X141565333Y-78176380D02*
X141565333Y-77176380D01*
X142041523Y-77176380D01*
X142898666Y-77176380D02*
X142422476Y-77176380D01*
X142374857Y-77652571D01*
X142422476Y-77604952D01*
X142517714Y-77557333D01*
X142755809Y-77557333D01*
X142851047Y-77604952D01*
X142898666Y-77652571D01*
X142946285Y-77747809D01*
X142946285Y-77985904D01*
X142898666Y-78081142D01*
X142851047Y-78128761D01*
X142755809Y-78176380D01*
X142517714Y-78176380D01*
X142422476Y-78128761D01*
X142374857Y-78081142D01*
X140565333Y-75636380D02*
X140565333Y-74636380D01*
X140946285Y-74636380D01*
X141041523Y-74684000D01*
X141089142Y-74731619D01*
X141136761Y-74826857D01*
X141136761Y-74969714D01*
X141089142Y-75064952D01*
X141041523Y-75112571D01*
X140946285Y-75160190D01*
X140565333Y-75160190D01*
X141898666Y-75112571D02*
X141565333Y-75112571D01*
X141565333Y-75636380D02*
X141565333Y-74636380D01*
X142041523Y-74636380D01*
X142851047Y-74969714D02*
X142851047Y-75636380D01*
X142612952Y-74588761D02*
X142374857Y-75303047D01*
X142993904Y-75303047D01*
X140565333Y-73096380D02*
X140565333Y-72096380D01*
X140946285Y-72096380D01*
X141041523Y-72144000D01*
X141089142Y-72191619D01*
X141136761Y-72286857D01*
X141136761Y-72429714D01*
X141089142Y-72524952D01*
X141041523Y-72572571D01*
X140946285Y-72620190D01*
X140565333Y-72620190D01*
X141898666Y-72572571D02*
X141565333Y-72572571D01*
X141565333Y-73096380D02*
X141565333Y-72096380D01*
X142041523Y-72096380D01*
X142946285Y-73096380D02*
X142374857Y-73096380D01*
X142660571Y-73096380D02*
X142660571Y-72096380D01*
X142565333Y-72239238D01*
X142470095Y-72334476D01*
X142374857Y-72382095D01*
X140565333Y-70556380D02*
X140565333Y-69556380D01*
X140946285Y-69556380D01*
X141041523Y-69604000D01*
X141089142Y-69651619D01*
X141136761Y-69746857D01*
X141136761Y-69889714D01*
X141089142Y-69984952D01*
X141041523Y-70032571D01*
X140946285Y-70080190D01*
X140565333Y-70080190D01*
X141898666Y-70032571D02*
X141565333Y-70032571D01*
X141565333Y-70556380D02*
X141565333Y-69556380D01*
X142041523Y-69556380D01*
X142612952Y-69556380D02*
X142708190Y-69556380D01*
X142803428Y-69604000D01*
X142851047Y-69651619D01*
X142898666Y-69746857D01*
X142946285Y-69937333D01*
X142946285Y-70175428D01*
X142898666Y-70365904D01*
X142851047Y-70461142D01*
X142803428Y-70508761D01*
X142708190Y-70556380D01*
X142612952Y-70556380D01*
X142517714Y-70508761D01*
X142470095Y-70461142D01*
X142422476Y-70365904D01*
X142374857Y-70175428D01*
X142374857Y-69937333D01*
X142422476Y-69746857D01*
X142470095Y-69651619D01*
X142517714Y-69604000D01*
X142612952Y-69556380D01*
X139604952Y-67730666D02*
X140081142Y-67730666D01*
X139509714Y-68016380D02*
X139843047Y-67016380D01*
X140176380Y-68016380D01*
X141081142Y-68016380D02*
X140747809Y-67540190D01*
X140509714Y-68016380D02*
X140509714Y-67016380D01*
X140890666Y-67016380D01*
X140985904Y-67064000D01*
X141033523Y-67111619D01*
X141081142Y-67206857D01*
X141081142Y-67349714D01*
X141033523Y-67444952D01*
X140985904Y-67492571D01*
X140890666Y-67540190D01*
X140509714Y-67540190D01*
X141509714Y-67492571D02*
X141843047Y-67492571D01*
X141985904Y-68016380D02*
X141509714Y-68016380D01*
X141509714Y-67016380D01*
X141985904Y-67016380D01*
X142747809Y-67492571D02*
X142414476Y-67492571D01*
X142414476Y-68016380D02*
X142414476Y-67016380D01*
X142890666Y-67016380D01*
X140970095Y-64524000D02*
X140874857Y-64476380D01*
X140732000Y-64476380D01*
X140589142Y-64524000D01*
X140493904Y-64619238D01*
X140446285Y-64714476D01*
X140398666Y-64904952D01*
X140398666Y-65047809D01*
X140446285Y-65238285D01*
X140493904Y-65333523D01*
X140589142Y-65428761D01*
X140732000Y-65476380D01*
X140827238Y-65476380D01*
X140970095Y-65428761D01*
X141017714Y-65381142D01*
X141017714Y-65047809D01*
X140827238Y-65047809D01*
X141446285Y-65476380D02*
X141446285Y-64476380D01*
X142017714Y-65476380D01*
X142017714Y-64476380D01*
X142493904Y-65476380D02*
X142493904Y-64476380D01*
X142732000Y-64476380D01*
X142874857Y-64524000D01*
X142970095Y-64619238D01*
X143017714Y-64714476D01*
X143065333Y-64904952D01*
X143065333Y-65047809D01*
X143017714Y-65238285D01*
X142970095Y-65333523D01*
X142874857Y-65428761D01*
X142732000Y-65476380D01*
X142493904Y-65476380D01*
X139557333Y-62650666D02*
X140033523Y-62650666D01*
X139462095Y-62936380D02*
X139795428Y-61936380D01*
X140128761Y-62936380D01*
X140319238Y-61936380D02*
X140652571Y-62936380D01*
X140985904Y-61936380D01*
X141890666Y-62841142D02*
X141843047Y-62888761D01*
X141700190Y-62936380D01*
X141604952Y-62936380D01*
X141462095Y-62888761D01*
X141366857Y-62793523D01*
X141319238Y-62698285D01*
X141271619Y-62507809D01*
X141271619Y-62364952D01*
X141319238Y-62174476D01*
X141366857Y-62079238D01*
X141462095Y-61984000D01*
X141604952Y-61936380D01*
X141700190Y-61936380D01*
X141843047Y-61984000D01*
X141890666Y-62031619D01*
X142890666Y-62841142D02*
X142843047Y-62888761D01*
X142700190Y-62936380D01*
X142604952Y-62936380D01*
X142462095Y-62888761D01*
X142366857Y-62793523D01*
X142319238Y-62698285D01*
X142271619Y-62507809D01*
X142271619Y-62364952D01*
X142319238Y-62174476D01*
X142366857Y-62079238D01*
X142462095Y-61984000D01*
X142604952Y-61936380D01*
X142700190Y-61936380D01*
X142843047Y-61984000D01*
X142890666Y-62031619D01*
X126071428Y-87207285D02*
X126071428Y-86457285D01*
X126357142Y-86457285D01*
X126428571Y-86493000D01*
X126464285Y-86528714D01*
X126500000Y-86600142D01*
X126500000Y-86707285D01*
X126464285Y-86778714D01*
X126428571Y-86814428D01*
X126357142Y-86850142D01*
X126071428Y-86850142D01*
X127071428Y-86814428D02*
X127178571Y-86850142D01*
X127214285Y-86885857D01*
X127250000Y-86957285D01*
X127250000Y-87064428D01*
X127214285Y-87135857D01*
X127178571Y-87171571D01*
X127107142Y-87207285D01*
X126821428Y-87207285D01*
X126821428Y-86457285D01*
X127071428Y-86457285D01*
X127142857Y-86493000D01*
X127178571Y-86528714D01*
X127214285Y-86600142D01*
X127214285Y-86671571D01*
X127178571Y-86743000D01*
X127142857Y-86778714D01*
X127071428Y-86814428D01*
X126821428Y-86814428D01*
X127500000Y-86457285D02*
X127964285Y-86457285D01*
X127714285Y-86743000D01*
X127821428Y-86743000D01*
X127892857Y-86778714D01*
X127928571Y-86814428D01*
X127964285Y-86885857D01*
X127964285Y-87064428D01*
X127928571Y-87135857D01*
X127892857Y-87171571D01*
X127821428Y-87207285D01*
X127607142Y-87207285D01*
X127535714Y-87171571D01*
X127500000Y-87135857D01*
X126777904Y-85288380D02*
X126777904Y-84288380D01*
X127158857Y-84288380D01*
X127254095Y-84336000D01*
X127301714Y-84383619D01*
X127349333Y-84478857D01*
X127349333Y-84621714D01*
X127301714Y-84716952D01*
X127254095Y-84764571D01*
X127158857Y-84812190D01*
X126777904Y-84812190D01*
X128111238Y-84764571D02*
X128254095Y-84812190D01*
X128301714Y-84859809D01*
X128349333Y-84955047D01*
X128349333Y-85097904D01*
X128301714Y-85193142D01*
X128254095Y-85240761D01*
X128158857Y-85288380D01*
X127777904Y-85288380D01*
X127777904Y-84288380D01*
X128111238Y-84288380D01*
X128206476Y-84336000D01*
X128254095Y-84383619D01*
X128301714Y-84478857D01*
X128301714Y-84574095D01*
X128254095Y-84669333D01*
X128206476Y-84716952D01*
X128111238Y-84764571D01*
X127777904Y-84764571D01*
X128730285Y-84383619D02*
X128777904Y-84336000D01*
X128873142Y-84288380D01*
X129111238Y-84288380D01*
X129206476Y-84336000D01*
X129254095Y-84383619D01*
X129301714Y-84478857D01*
X129301714Y-84574095D01*
X129254095Y-84716952D01*
X128682666Y-85288380D01*
X129301714Y-85288380D01*
X126777904Y-83256380D02*
X126777904Y-82256380D01*
X127158857Y-82256380D01*
X127254095Y-82304000D01*
X127301714Y-82351619D01*
X127349333Y-82446857D01*
X127349333Y-82589714D01*
X127301714Y-82684952D01*
X127254095Y-82732571D01*
X127158857Y-82780190D01*
X126777904Y-82780190D01*
X128111238Y-82732571D02*
X128254095Y-82780190D01*
X128301714Y-82827809D01*
X128349333Y-82923047D01*
X128349333Y-83065904D01*
X128301714Y-83161142D01*
X128254095Y-83208761D01*
X128158857Y-83256380D01*
X127777904Y-83256380D01*
X127777904Y-82256380D01*
X128111238Y-82256380D01*
X128206476Y-82304000D01*
X128254095Y-82351619D01*
X128301714Y-82446857D01*
X128301714Y-82542095D01*
X128254095Y-82637333D01*
X128206476Y-82684952D01*
X128111238Y-82732571D01*
X127777904Y-82732571D01*
X129301714Y-83256380D02*
X128730285Y-83256380D01*
X129016000Y-83256380D02*
X129016000Y-82256380D01*
X128920761Y-82399238D01*
X128825523Y-82494476D01*
X128730285Y-82542095D01*
X126777904Y-80716380D02*
X126777904Y-79716380D01*
X127158857Y-79716380D01*
X127254095Y-79764000D01*
X127301714Y-79811619D01*
X127349333Y-79906857D01*
X127349333Y-80049714D01*
X127301714Y-80144952D01*
X127254095Y-80192571D01*
X127158857Y-80240190D01*
X126777904Y-80240190D01*
X128111238Y-80192571D02*
X128254095Y-80240190D01*
X128301714Y-80287809D01*
X128349333Y-80383047D01*
X128349333Y-80525904D01*
X128301714Y-80621142D01*
X128254095Y-80668761D01*
X128158857Y-80716380D01*
X127777904Y-80716380D01*
X127777904Y-79716380D01*
X128111238Y-79716380D01*
X128206476Y-79764000D01*
X128254095Y-79811619D01*
X128301714Y-79906857D01*
X128301714Y-80002095D01*
X128254095Y-80097333D01*
X128206476Y-80144952D01*
X128111238Y-80192571D01*
X127777904Y-80192571D01*
X128968380Y-79716380D02*
X129063619Y-79716380D01*
X129158857Y-79764000D01*
X129206476Y-79811619D01*
X129254095Y-79906857D01*
X129301714Y-80097333D01*
X129301714Y-80335428D01*
X129254095Y-80525904D01*
X129206476Y-80621142D01*
X129158857Y-80668761D01*
X129063619Y-80716380D01*
X128968380Y-80716380D01*
X128873142Y-80668761D01*
X128825523Y-80621142D01*
X128777904Y-80525904D01*
X128730285Y-80335428D01*
X128730285Y-80097333D01*
X128777904Y-79906857D01*
X128825523Y-79811619D01*
X128873142Y-79764000D01*
X128968380Y-79716380D01*
X126690666Y-77176380D02*
X127024000Y-78176380D01*
X127357333Y-77176380D01*
X128024000Y-77652571D02*
X128166857Y-77700190D01*
X128214476Y-77747809D01*
X128262095Y-77843047D01*
X128262095Y-77985904D01*
X128214476Y-78081142D01*
X128166857Y-78128761D01*
X128071619Y-78176380D01*
X127690666Y-78176380D01*
X127690666Y-77176380D01*
X128024000Y-77176380D01*
X128119238Y-77224000D01*
X128166857Y-77271619D01*
X128214476Y-77366857D01*
X128214476Y-77462095D01*
X128166857Y-77557333D01*
X128119238Y-77604952D01*
X128024000Y-77652571D01*
X127690666Y-77652571D01*
X128690666Y-77176380D02*
X128690666Y-77985904D01*
X128738285Y-78081142D01*
X128785904Y-78128761D01*
X128881142Y-78176380D01*
X129071619Y-78176380D01*
X129166857Y-78128761D01*
X129214476Y-78081142D01*
X129262095Y-77985904D01*
X129262095Y-77176380D01*
X129690666Y-78128761D02*
X129833523Y-78176380D01*
X130071619Y-78176380D01*
X130166857Y-78128761D01*
X130214476Y-78081142D01*
X130262095Y-77985904D01*
X130262095Y-77890666D01*
X130214476Y-77795428D01*
X130166857Y-77747809D01*
X130071619Y-77700190D01*
X129881142Y-77652571D01*
X129785904Y-77604952D01*
X129738285Y-77557333D01*
X129690666Y-77462095D01*
X129690666Y-77366857D01*
X129738285Y-77271619D01*
X129785904Y-77224000D01*
X129881142Y-77176380D01*
X130119238Y-77176380D01*
X130262095Y-77224000D01*
X126809714Y-74636380D02*
X126809714Y-75445904D01*
X126857333Y-75541142D01*
X126904952Y-75588761D01*
X127000190Y-75636380D01*
X127190666Y-75636380D01*
X127285904Y-75588761D01*
X127333523Y-75541142D01*
X127381142Y-75445904D01*
X127381142Y-74636380D01*
X128428761Y-75541142D02*
X128381142Y-75588761D01*
X128238285Y-75636380D01*
X128143047Y-75636380D01*
X128000190Y-75588761D01*
X127904952Y-75493523D01*
X127857333Y-75398285D01*
X127809714Y-75207809D01*
X127809714Y-75064952D01*
X127857333Y-74874476D01*
X127904952Y-74779238D01*
X128000190Y-74684000D01*
X128143047Y-74636380D01*
X128238285Y-74636380D01*
X128381142Y-74684000D01*
X128428761Y-74731619D01*
X128809714Y-75350666D02*
X129285904Y-75350666D01*
X128714476Y-75636380D02*
X129047809Y-74636380D01*
X129381142Y-75636380D01*
X129714476Y-75636380D02*
X129714476Y-74636380D01*
X130095428Y-74636380D01*
X130190666Y-74684000D01*
X130238285Y-74731619D01*
X130285904Y-74826857D01*
X130285904Y-74969714D01*
X130238285Y-75064952D01*
X130190666Y-75112571D01*
X130095428Y-75160190D01*
X129714476Y-75160190D01*
X126714476Y-72096380D02*
X126714476Y-72905904D01*
X126762095Y-73001142D01*
X126809714Y-73048761D01*
X126904952Y-73096380D01*
X127095428Y-73096380D01*
X127190666Y-73048761D01*
X127238285Y-73001142D01*
X127285904Y-72905904D01*
X127285904Y-72096380D01*
X128285904Y-72144000D02*
X128190666Y-72096380D01*
X128047809Y-72096380D01*
X127904952Y-72144000D01*
X127809714Y-72239238D01*
X127762095Y-72334476D01*
X127714476Y-72524952D01*
X127714476Y-72667809D01*
X127762095Y-72858285D01*
X127809714Y-72953523D01*
X127904952Y-73048761D01*
X128047809Y-73096380D01*
X128143047Y-73096380D01*
X128285904Y-73048761D01*
X128333523Y-73001142D01*
X128333523Y-72667809D01*
X128143047Y-72667809D01*
X128762095Y-73096380D02*
X128762095Y-72096380D01*
X129333523Y-73096380D01*
X129333523Y-72096380D01*
X129809714Y-73096380D02*
X129809714Y-72096380D01*
X130047809Y-72096380D01*
X130190666Y-72144000D01*
X130285904Y-72239238D01*
X130333523Y-72334476D01*
X130381142Y-72524952D01*
X130381142Y-72667809D01*
X130333523Y-72858285D01*
X130285904Y-72953523D01*
X130190666Y-73048761D01*
X130047809Y-73096380D01*
X129809714Y-73096380D01*
X126627047Y-70556380D02*
X126627047Y-69556380D01*
X126865142Y-69556380D01*
X127008000Y-69604000D01*
X127103238Y-69699238D01*
X127150857Y-69794476D01*
X127198476Y-69984952D01*
X127198476Y-70127809D01*
X127150857Y-70318285D01*
X127103238Y-70413523D01*
X127008000Y-70508761D01*
X126865142Y-70556380D01*
X126627047Y-70556380D01*
X127627047Y-70175428D02*
X128388952Y-70175428D01*
X128008000Y-70556380D02*
X128008000Y-69794476D01*
X126627047Y-68016380D02*
X126627047Y-67016380D01*
X126865142Y-67016380D01*
X127008000Y-67064000D01*
X127103238Y-67159238D01*
X127150857Y-67254476D01*
X127198476Y-67444952D01*
X127198476Y-67587809D01*
X127150857Y-67778285D01*
X127103238Y-67873523D01*
X127008000Y-67968761D01*
X126865142Y-68016380D01*
X126627047Y-68016380D01*
X127627047Y-67635428D02*
X128388952Y-67635428D01*
X126809714Y-64476380D02*
X126809714Y-65285904D01*
X126857333Y-65381142D01*
X126904952Y-65428761D01*
X127000190Y-65476380D01*
X127190666Y-65476380D01*
X127285904Y-65428761D01*
X127333523Y-65381142D01*
X127381142Y-65285904D01*
X127381142Y-64476380D01*
X127714476Y-64476380D02*
X128047809Y-65476380D01*
X128381142Y-64476380D01*
X129285904Y-65381142D02*
X129238285Y-65428761D01*
X129095428Y-65476380D01*
X129000190Y-65476380D01*
X128857333Y-65428761D01*
X128762095Y-65333523D01*
X128714476Y-65238285D01*
X128666857Y-65047809D01*
X128666857Y-64904952D01*
X128714476Y-64714476D01*
X128762095Y-64619238D01*
X128857333Y-64524000D01*
X129000190Y-64476380D01*
X129095428Y-64476380D01*
X129238285Y-64524000D01*
X129285904Y-64571619D01*
X130285904Y-65381142D02*
X130238285Y-65428761D01*
X130095428Y-65476380D01*
X130000190Y-65476380D01*
X129857333Y-65428761D01*
X129762095Y-65333523D01*
X129714476Y-65238285D01*
X129666857Y-65047809D01*
X129666857Y-64904952D01*
X129714476Y-64714476D01*
X129762095Y-64619238D01*
X129857333Y-64524000D01*
X130000190Y-64476380D01*
X130095428Y-64476380D01*
X130238285Y-64524000D01*
X130285904Y-64571619D01*
X126825523Y-62936380D02*
X126825523Y-61936380D01*
X127206476Y-61936380D01*
X127301714Y-61984000D01*
X127349333Y-62031619D01*
X127396952Y-62126857D01*
X127396952Y-62269714D01*
X127349333Y-62364952D01*
X127301714Y-62412571D01*
X127206476Y-62460190D01*
X126825523Y-62460190D01*
X127825523Y-62412571D02*
X128158857Y-62412571D01*
X128301714Y-62936380D02*
X127825523Y-62936380D01*
X127825523Y-61936380D01*
X128301714Y-61936380D01*
X129158857Y-61936380D02*
X128968380Y-61936380D01*
X128873142Y-61984000D01*
X128825523Y-62031619D01*
X128730285Y-62174476D01*
X128682666Y-62364952D01*
X128682666Y-62745904D01*
X128730285Y-62841142D01*
X128777904Y-62888761D01*
X128873142Y-62936380D01*
X129063619Y-62936380D01*
X129158857Y-62888761D01*
X129206476Y-62841142D01*
X129254095Y-62745904D01*
X129254095Y-62507809D01*
X129206476Y-62412571D01*
X129158857Y-62364952D01*
X129063619Y-62317333D01*
X128873142Y-62317333D01*
X128777904Y-62364952D01*
X128730285Y-62412571D01*
X128682666Y-62507809D01*
D11*
X125790000Y-60138000D02*
X123130000Y-60138000D01*
X125790000Y-85598000D02*
X125790000Y-60138000D01*
X123130000Y-85598000D02*
X123130000Y-60138000D01*
X125790000Y-85598000D02*
X123130000Y-85598000D01*
X125790000Y-86868000D02*
X125790000Y-88198000D01*
X125790000Y-88198000D02*
X124460000Y-88198000D01*
X125790000Y-120710000D02*
X124460000Y-120710000D01*
X125790000Y-119380000D02*
X125790000Y-120710000D01*
X125790000Y-118110000D02*
X123130000Y-118110000D01*
X123130000Y-118110000D02*
X123130000Y-92650000D01*
X125790000Y-118110000D02*
X125790000Y-92650000D01*
X125790000Y-92650000D02*
X123130000Y-92650000D01*
X143450000Y-120710000D02*
X146110000Y-120710000D01*
X143450000Y-95250000D02*
X143450000Y-120710000D01*
X146110000Y-95250000D02*
X146110000Y-120710000D01*
X143450000Y-95250000D02*
X146110000Y-95250000D01*
X143450000Y-93980000D02*
X143450000Y-92650000D01*
X143450000Y-92650000D02*
X144780000Y-92650000D01*
X143450000Y-60138000D02*
X144780000Y-60138000D01*
X143450000Y-61468000D02*
X143450000Y-60138000D01*
X143450000Y-62738000D02*
X146110000Y-62738000D01*
X146110000Y-62738000D02*
X146110000Y-88198000D01*
X143450000Y-62738000D02*
X143450000Y-88198000D01*
X143450000Y-88198000D02*
X146110000Y-88198000D01*
D10*
X134620000Y-82851445D02*
X134213414Y-83258031D01*
X141938555Y-90170000D02*
X141461258Y-90647297D01*
X134620000Y-97488555D02*
X135097297Y-97011258D01*
X127301445Y-90170000D02*
X127778742Y-89692703D01*
X134620000Y-82851445D02*
X135097297Y-83328742D01*
X127301445Y-90170000D02*
X127778742Y-90647297D01*
X134620000Y-97488555D02*
X134142703Y-97011258D01*
X141938555Y-90170000D02*
X141461258Y-89692703D01*
X134213414Y-83258031D02*
X133311852Y-82356470D01*
X124210000Y-88787285D02*
X124210000Y-89323000D01*
X124174285Y-89430142D01*
X124102857Y-89501571D01*
X123995714Y-89537285D01*
X123924285Y-89537285D01*
X124960000Y-89537285D02*
X124531428Y-89537285D01*
X124745714Y-89537285D02*
X124745714Y-88787285D01*
X124674285Y-88894428D01*
X124602857Y-88965857D01*
X124531428Y-89001571D01*
X124210000Y-91029285D02*
X124210000Y-91565000D01*
X124174285Y-91672142D01*
X124102857Y-91743571D01*
X123995714Y-91779285D01*
X123924285Y-91779285D01*
X124531428Y-91100714D02*
X124567142Y-91065000D01*
X124638571Y-91029285D01*
X124817142Y-91029285D01*
X124888571Y-91065000D01*
X124924285Y-91100714D01*
X124960000Y-91172142D01*
X124960000Y-91243571D01*
X124924285Y-91350714D01*
X124495714Y-91779285D01*
X124960000Y-91779285D01*
X144530000Y-91239285D02*
X144530000Y-91775000D01*
X144494285Y-91882142D01*
X144422857Y-91953571D01*
X144315714Y-91989285D01*
X144244285Y-91989285D01*
X144815714Y-91239285D02*
X145280000Y-91239285D01*
X145030000Y-91525000D01*
X145137142Y-91525000D01*
X145208571Y-91560714D01*
X145244285Y-91596428D01*
X145280000Y-91667857D01*
X145280000Y-91846428D01*
X145244285Y-91917857D01*
X145208571Y-91953571D01*
X145137142Y-91989285D01*
X144922857Y-91989285D01*
X144851428Y-91953571D01*
X144815714Y-91917857D01*
X144530000Y-89251285D02*
X144530000Y-89787000D01*
X144494285Y-89894142D01*
X144422857Y-89965571D01*
X144315714Y-90001285D01*
X144244285Y-90001285D01*
X145208571Y-89501285D02*
X145208571Y-90001285D01*
X145030000Y-89215571D02*
X144851428Y-89751285D01*
X145315714Y-89751285D01*
X133960477Y-90006026D02*
X133388057Y-90578446D01*
X133354385Y-90679461D01*
X133354385Y-90746805D01*
X133388057Y-90847820D01*
X133522744Y-90982507D01*
X133623759Y-91016179D01*
X133691103Y-91016179D01*
X133792118Y-90982507D01*
X134364538Y-90410087D01*
X134364538Y-91824301D02*
X133960477Y-91420240D01*
X134162507Y-91622270D02*
X134869614Y-90915164D01*
X134701255Y-90948835D01*
X134566568Y-90948835D01*
X134465553Y-90915164D01*
M02*
